# xmcd
#
# Track frame offsets: 
#        150
#        13640
#        32763
#        43831
#        55223
#        69734
#        86709
#        112963
#        134511
#        142868
#
# Disc length: 2160 seconds
#
# Revision: 0
# Processed by: cddbd v1.5.2PL0 Copyright (c) Steve Scherf et al.
# Submitted via: ExactAudioCopy v0.99pb3
#
DISCID=89086e0a
DTITLE=Porter Hall Tennessee - All Sinners Welcome Here
DYEAR=2007
DGENRE=
TTITLE0=Broken Strings
TTITLE1=Crazy Inside
TTITLE2=Little Jimmy Rant
TTITLE3=All Messed Up
TTITLE4=Nashville Summer Fever
TTITLE5=Miracle Woman
TTITLE6=Whiskey Bottle
TTITLE7=People Who Died
TTITLE8=Any Way We Want
TTITLE9=Easier Said Than Done
EXTD=
EXTT0=
EXTT1=
EXTT2=
EXTT3=
EXTT4=
EXTT5=
EXTT6=
EXTT7=
EXTT8=
EXTT9=
PLAYORDER=
